# xmcd
#
# Track frame offsets:
#       150
#       17812
#       36950
#       53430
#       69587
#       87562
#       108142
#       126180
#       137902
#       155800
#       172765
#       189202
#       207585
#
# Disc length: 2988 seconds
#
# Revision: 1
# Processed by: cddbd v1.4PL0 Copyright (c) Steve Scherf et al.
# Submitted via: MusiCat 1.1
#
DISCID=b00baa0d
DTITLE=Various Artist - Exporting South Australia
DYEAR=1992
DGENRE=
TTITLE0=Big Secret/ Big Secret
TTITLE1=Be Brave/ My Secret Ends
TTITLE2=Robyn Habel/ The Wind Gets Louder
TTITLE3=F O A M/ Fellin' Good
TTITLE4=My Love Pumpkin/ Flower Boys
TTITLE5=Cosmic Desert/ Time Will Tell
TTITLE6=Napolean Goes Solo/ Don't Say
TTITLE7=Those Kodiaks/Big Ben
TTITLE8=Millions In Hell/ In For The Kill
TTITLE9=This Hose Is jumping/ Face In The Mirror
TTITLE10=Fire N Ice/ Oh Elena
TTITLE11=The Violets/ Made Of Stone
TTITLE12=The Eldorados/ Silverado
EXTD=1992\n\n\nCompilation of SA artists produced by SA Brewing (West End Expo
EXTD=rt)
EXTT0=
EXTT1=
EXTT2=
EXTT3=
EXTT4=
EXTT5=
EXTT6=
EXTT7=
EXTT8=
EXTT9=
EXTT10=
EXTT11=
EXTT12=
PLAYORDER=
